PathFileType	4	(X/Y/Z)	trial_0_0-299.trc
DataRate	CameraRate	NumFrames	NumMarkers	Units	OrigDataRate	OrigDataStartFrame	OrigNumFrames
60	60	6	21	m	60	149	299
Frame#	Time	RHip			RKnee			RAnkle			RBigToe			RSmallToe			RHeel			LHip			LKnee			LAnkle			LBigToe			LSmallToe			LHeel			Neck			Head			Nose			RShoulder			RElbow			RWrist			LShoulder			LElbow			LWrist		
		X1	Y1	Z1	X2	Y2	Z2	X3	Y3	Z3	X4	Y4	Z4	X5	Y5	Z5	X6	Y6	Z6	X7	Y7	Z7	X8	Y8	Z8	X9	Y9	Z9	X10	Y10	Z10	X11	Y11	Z11	X12	Y12	Z12	X13	Y13	Z13	X14	Y14	Z14	X15	Y15	Z15	X16	Y16	Z16	X17	Y17	Z17	X18	Y18	Z18	X19	Y19	Z19	X20	Y20	Z20	X21	Y21	Z21
150	2.5	1.4540801889479527	1.299357621759536	0.3896416828508874	2.064772512968863	1.5050701460239557	0.3747638622961147	2.1892409336969516	0.9386868308047314	0.3362098924992728	2.464407101169903	1.145331251595808	0.31899507065865707	2.455277012797267	1.1435660701399935	0.404085060143064	2.150782480090979	0.8521030873014035	0.32352223678772585	1.3492279372820477	1.1928835143467102	0.16538758852660046	1.8164394468228424	1.1044060202069037	0.10010128799450735	2.157464338216837	0.9292028437101417	0.1422048019668621	2.4921023726412614	1.2277405023740011	0.13583282251516604	2.3186420380831314	0.9959921668197713	0.08023140908286895	2.1178542119302737	0.793061220078897	0.1886203353580608	0.7441811196974184	1.1928686211748643	0.46372353617219353	0.40819922343464476	1.2871736129636215	0.5362944828479647	0.5814184807729998	1.4846492021473654	0.4130927549159723	0.9181874624836144	1.3917404094382375	0.5717033118537437	1.2892550789357913	1.9629925200816423	0.3371972148664132	1.0665689821820146	1.9350776915228525	0.01630940623885295	0.7418795660481008	0.8998208029881177	0.2908714290647156	0.9790512872400023	0.765236606531599	0.17000318228165545	1.0697381373191184	0.6800682575557974	-0.012851838412519717
151	2.5166666666666666	1.460580340031708	1.3041180977793523	0.3889613161684657	2.0617050063236	1.5012501499446707	0.37339810672491747	2.1886794694543505	0.9379201183426313	0.3363380340698434	2.4609185374498326	1.1410920110197627	0.3192558164650954	2.4539639721215485	1.1423125396059022	0.40443544001210274	2.153274575662217	0.85697357996525	0.32472036632746615	1.3539032499836614	1.1950792414463347	0.16439822058355688	1.820275352433317	1.110426022608778	0.09808937847081453	2.1637169984169002	0.9388741566520296	0.14250703446912893	2.4934430260716614	1.2273958055418017	0.13644931596677443	2.3199275843047205	0.9976497532032984	0.08001419779069484	2.121819970593518	0.8015801556989708	0.18970713565252137	0.7446833522184735	1.1852856844646977	0.4661185161874791	0.4105234629445061	1.2976027017335214	0.5461071466641689	0.5833443237985942	1.4810525387979623	0.41868742297530664	0.9218456060508611	1.3844261110985132	0.5727909743593638	1.3033112366079205	1.9588392373047199	0.3390175448893619	1.0934567175707308	1.8757572571740353	0.006857679388192036	0.7427988396546603	0.9056804779183352	0.29142701801102877	0.9787007099494529	0.7458858197255731	0.17701972836929694	1.0787551001499518	0.6568209566683755	0.007695120258021974
152	2.533333333333333	1.4661240601807646	1.3095896816330213	0.38843281817075515	2.0570672633289457	1.4948049317098717	0.37165672575871955	2.187698641516808	0.9365687345242361	0.3365986202715071	2.456110229847039	1.1342082037576489	0.32005921254460656	2.452271585923784	1.1396847324080952	0.4050057901823252	2.154755557893579	0.8608221928475008	0.32557818825977936	1.359121031632864	1.1971641793695864	0.1630819981830948	1.8237133411718514	1.1150963625562826	0.09599499911053912	2.1697080018260757	0.9496954332279366	0.14275111077870872	2.493646947521685	1.226998609044423	0.1370998832180578	2.3203291367807486	0.9991993811337658	0.08011251805373208	2.1241582905457896	0.808059446563611	0.19068873695302008	0.7459350629589261	1.1812394090486846	0.4687151443591422	0.41300435497503085	1.3062070365460963	0.5538350011088338	0.5850901489777528	1.4760691073803263	0.4229627399645359	0.9259198869656281	1.3769659838109243	0.573676259710916	1.3157674413674416	1.9483041182619083	0.3421116611721605	1.1201878411803863	1.8181208897391636	0.0010342592213846199	0.7428963544366483	0.9055006852434427	0.29303720528198646	0.9777256398526599	0.7224315784500042	0.18482269680434532	1.0872086463456645	0.6387701893195962	0.02838979530452274
153	2.55	1.4709549174446512	1.3161098145703143	0.38776402309721464	2.0521554252386345	1.4867879885463835	0.36971638896680825	2.1865948565260185	0.9349153335238669	0.3369856414466079	2.4504914635890342	1.1254999557420882	0.3211316333085479	2.4508146657377954	1.1367063997577944	0.4056145266671953	2.155638749678865	0.8638570857110939	0.32605064263136835	1.3647413085320592	1.1984684567464745	0.1615472126426218	1.827039087864569	1.1178876569846634	0.09362596152863367	2.17465905318217	0.9594151587827537	0.142694940590645	2.4934570225528065	1.2277801031266484	0.13754487298867352	2.319981924251675	1.0009145070894259	0.080365026462933	2.125939275933036	0.8134271668614945	0.1916366323092794	0.7480999197497041	1.1808809763175019	0.47132737208770004	0.4156282172586515	1.31268933276084	0.5591077392767962	0.5870174747264015	1.4720068996494753	0.4260872468935524	0.9304237637925952	1.3709470855791828	0.5743416433566416	1.3257485547292673	1.9311226076029433	0.3463659418184506	1.146354991131913	1.7664790614392207	-0.0017617571151273008	0.7423386202197712	0.8998337473616742	0.2954081014739454	0.9768759266252915	0.6999459116779165	0.19278616450565636	1.0947938384828708	0.6329580792401917	0.04683396881919086
154	2.566666666666667	1.476180287564457	1.324116344152268	0.38667991625997317	2.048346593888737	1.4782749892107727	0.36786755216791966	2.1856621094594995	0.9333538001692422	0.3374542907514524	2.444830490752398	1.1166214778929258	0.32212394819548895	2.4500806704079507	1.1346608597387087	0.40608042438834613	2.1565978350773922	0.866909429308121	0.3263362972859976	1.37068576444323	1.1988944369037307	0.1599248449408187	1.8307262444886283	1.1189005656111835	0.09093224672552494	2.17851086312815	0.9670872541750324	0.14218096531717808	2.4932199575483445	1.229813138058709	0.1376452296146481	2.3194085912864524	1.0030435733474574	0.08059132109242785	2.1286923795903014	0.8196342928983167	0.19273459104015675	0.7510666717973425	1.1837325452159828	0.4735028499936726	0.41817121827081094	1.3174497954924909	0.5619894495597217	0.589295339509721	1.4703365233407295	0.42824044360408786	0.9348803604557405	1.3656878288723788	0.5748709749044322	1.332804826331201	1.908023275373529	0.3512354729240158	1.171304235939531	1.7239466284861238	-0.002413855957601779	0.7415586107663052	0.891865171455119	0.2979686631900721	0.9774004902509368	0.6866910639330398	0.19948824865096926	1.1000140410926191	0.6437027485702987	0.06077916366286859
155	2.583333333333333	1.4825334847704867	1.333283909730429	0.38514561611290377	2.0464653426679034	1.4699000517492653	0.3662081524342392	2.1851640823897185	0.9323373247475852	0.3379329610200882	2.4400922331076984	1.1095257865424062	0.3227925112877356	2.450172352546233	1.1342837644759554	0.4063205049037276	2.158097161061367	0.8707187142648971	0.32670632540010924	1.376808424182422	1.198528906545133	0.15830040422205496	1.835446259143561	1.1195003658506804	0.08804990387222814	2.1821131224335257	0.9737994283659666	0.14127990102611887	2.4924334019436882	1.2317818281751616	0.13739245391211816	2.319142588713726	1.005441597993574	0.08074528907016593	2.133365006767429	0.828092969157968	0.19414772129095229	0.7545292639968642	1.1887835372519597	0.4747155480332439	0.4202341188107255	1.3207011949918837	0.5629110860857658	0.5919064635534529	1.4714517468541621	0.4296834271472545	0.9386117704400427	1.3593291901070508	0.5753739794308035	1.3370390137125865	1.8803506161537373	0.3562567720155787	1.1939831803752936	1.6905134648810671	-0.0012305439338445774	0.7412154274489164	0.8859081163638707	0.3002045619591569	0.9801158427398604	0.6877173869423062	0.20382491771670183	1.1018020725970592	0.6691545124110846	0.06913019119700745
